<?xml version="1.0" encoding="UTF-8" standalone="no"?>
<svg
   xmlns:dc="http://purl.org/dc/elements/1.1/"
   xmlns:cc="http://creativecommons.org/ns#"
   xmlns:rdf="http://www.w3.org/1999/02/22-rdf-syntax-ns#"
   xmlns:svg="http://www.w3.org/2000/svg"
   xmlns="http://www.w3.org/2000/svg"
   width="783.6"
   height="351.4"
   viewBox="0 0 783.6 351.4"
   version="1.1"
   id="svg4">
   <g
     id="flowRoot22"
     style="font-style:normal;font-variant:normal;font-weight:bold;font-stretch:normal;font-size:96px;line-height:1.25;font-family:Lato;-inkscape-font-specification:'Lato Bold';text-align:center;letter-spacing:0px;word-spacing:0px;text-anchor:middle"
     transform="matrix(1.349938,0,0,1.4914711,-145.18471,-19.127465)"
     aria-label="Intro a R">
    <g
       id="flowRoot32"
       style="font-style:normal;font-variant:normal;font-weight:bold;font-stretch:normal;font-size:40px;line-height:1.25;font-family:Lato;-inkscape-font-specification:'Lato Bold';letter-spacing:0px;word-spacing:0px"
       transform="matrix(0.74077476,0,0,0.67047897,107.54917,41.309417)"
       aria-label="Intro a R">
      <path
         id="path40"
         style="font-size:192px"
         d="M 68.001,189.96039 H 42.081 V 51.144391 h 25.92 z" />
      <path
         id="path42"
         style="font-size:192px"
         d="m 116.013,103.56039 q 2.976,-2.976 6.24,-5.471999 3.36,-2.592 7.008,-4.32 3.744,-1.824 7.968,-2.784 4.224,-1.056 9.216,-1.056 8.064,0 14.304,2.784 6.24,2.688 10.368,7.679999 4.224,4.896 6.336,11.808 2.208,6.816 2.208,15.072 v 62.688 h -23.712 v -62.688 q 0,-9.024 -4.128,-13.92 -4.128,-4.992 -12.576,-4.992 -6.144,0 -11.52,2.784 -5.376,2.784 -10.176,7.584 v 71.232 H 93.837 V 91.464391 h 14.496 q 4.608,0 6.048,4.32 z" />
      <path
         id="path44"
         style="font-size:192px"
         d="m 233.544,191.49639 q -12.864,0 -19.776,-7.2 -6.816,-7.296 -6.816,-20.064 v -55.008 h -10.08 q -1.92,0 -3.264,-1.248 -1.344,-1.248 -1.344,-3.744 v -9.407999 l 15.84,-2.592 4.992,-26.88 q 0.48,-1.92 1.824,-2.976 1.344,-1.056 3.456,-1.056 h 12.288 v 31.008 h 26.304 v 16.895999 h -26.304 v 53.376 q 0,4.608 2.208,7.2 2.304,2.592 6.24,2.592 2.208,0 3.648,-0.48 1.536,-0.576 2.592,-1.152 1.152,-0.576 2.016,-1.056 0.864,-0.576 1.728,-0.576 1.056,0 1.728,0.576 0.672,0.48 1.44,1.536 l 7.104,11.52 q -5.184,4.32 -11.904,6.528 -6.72,2.208 -13.92,2.208 z" />
      <path
         id="path46"
         style="font-size:192px"
         d="m 294.33,108.55239 q 4.608,-8.831999 10.944,-13.823999 6.336,-5.088 14.976,-5.088 6.816,0 10.944,2.976 l -1.536,17.759999 q -0.48,1.728 -1.44,2.496 -0.864,0.672 -2.4,0.672 -1.44,0 -4.32,-0.48 -2.784,-0.48 -5.472,-0.48 -3.936,0 -7.008,1.152 -3.072,1.152 -5.568,3.36 -2.4,2.112 -4.32,5.184 -1.824,3.072 -3.456,7.008 v 60.672 H 271.962 V 91.464391 h 13.92 q 3.648,0 5.088,1.344 1.44,1.248 1.92,4.608 z" />
      <path
         id="path48"
         style="font-size:192px"
         d="m 384.546,89.928391 q 10.944,0 19.872,3.552 9.024,3.552 15.36,10.079999 6.432,6.528 9.888,15.936 3.456,9.408 3.456,21.024 0,11.712 -3.456,21.12 -3.456,9.408 -9.888,16.032 -6.336,6.624 -15.36,10.176 -8.928,3.552 -19.872,3.552 -11.04,0 -20.064,-3.552 -9.024,-3.552 -15.456,-10.176 -6.336,-6.624 -9.888,-16.032 -3.456,-9.408 -3.456,-21.12 0,-11.616 3.456,-21.024 3.552,-9.408 9.888,-15.936 6.432,-6.527999 15.456,-10.079999 9.024,-3.552 20.064,-3.552 z m 0,83.231999 q 12.288,0 18.144,-8.256 5.952,-8.256 5.952,-24.192 0,-15.936 -5.952,-24.288 -5.856,-8.352 -18.144,-8.352 -12.48,0 -18.528,8.448 -5.952,8.352 -5.952,24.192 0,15.84 5.952,24.192 6.048,8.256 18.528,8.256 z" />
      <path
         id="path50"
         style="font-size:192px"
         d="m 549.744,147.91239 q -10.272,0.48 -17.28,1.824 -7.008,1.248 -11.232,3.264 -4.224,2.016 -6.048,4.704 -1.824,2.688 -1.824,5.856 0,6.24 3.648,8.928 3.744,2.688 9.696,2.688 7.296,0 12.576,-2.592 5.376,-2.688 10.464,-8.064 z m -54.336,-42.72 q 16.992,-15.551999 40.896,-15.551999 8.64,0 15.456,2.88 6.816,2.784 11.52,7.871999 4.704,4.992 7.104,12 2.496,7.008 2.496,15.36 v 62.208 h -10.752 q -3.36,0 -5.184,-0.96 -1.824,-1.056 -2.88,-4.128 l -2.112,-7.104 q -3.744,3.36 -7.296,5.952 -3.552,2.496 -7.392,4.224 -3.84,1.728 -8.256,2.592 -4.32,0.96 -9.6,0.96 -6.24,0 -11.52,-1.632 -5.28,-1.728 -9.12,-5.088 -3.84,-3.36 -5.952,-8.352 -2.112,-4.992 -2.112,-11.616 0,-3.744 1.248,-7.392 1.248,-3.744 4.032,-7.104 2.88,-3.36 7.392,-6.336 4.512,-2.976 11.04,-5.184 6.624,-2.208 15.36,-3.552 8.736,-1.44 19.968,-1.728 v -5.76 q 0,-9.888 -4.224,-14.592 -4.224,-4.8 -12.192,-4.8 -5.76,0 -9.6,1.344 -3.744,1.344 -6.624,3.072 -2.88,1.632 -5.28,2.976 -2.304,1.344 -5.184,1.344 -2.496,0 -4.224,-1.248 -1.728,-1.344 -2.784,-3.072 z" />
      <path
         id="path52"
         style="font-size:192px"
         d="m 687.408,117.19239 q 7.296,0 12.672,-1.824 5.472,-1.824 8.928,-4.992 3.552,-3.264 5.28,-7.68 1.728,-4.415999 1.728,-9.695999 0,-10.56 -7.008,-16.224 -6.912,-5.664 -21.216,-5.664 H 671.28 v 46.079999 z m 66.432,72.768 h -23.328 q -6.624,0 -9.6,-5.184 l -29.184,-44.448 q -1.632,-2.496 -3.648,-3.552 -1.92,-1.056 -5.76,-1.056 h -11.04 v 54.24 H 645.456 V 51.144391 h 42.336 q 14.112,0 24.192,2.976 10.176,2.88 16.608,8.16 6.528,5.28 9.6,12.672 3.072,7.296 3.072,16.128 0,7.008 -2.112,13.247999 -2.016,6.24 -5.952,11.328 -3.84,5.088 -9.6,8.928 -5.664,3.84 -12.96,6.048 2.496,1.44 4.608,3.456 2.112,1.92 3.84,4.608 z" />
    </g>
  </g>
</svg>
