<?xml version="1.0" encoding="UTF-8" standalone="no"?>
<svg
   xmlns:dc="http://purl.org/dc/elements/1.1/"
   xmlns:cc="http://creativecommons.org/ns#"
   xmlns:rdf="http://www.w3.org/1999/02/22-rdf-syntax-ns#"
   xmlns:svg="http://www.w3.org/2000/svg"
   xmlns="http://www.w3.org/2000/svg"
   width="783.6"
   height="351.4"
   viewBox="0 0 783.6 351.4"
   version="1.1"
   id="svg4">
   <g
     aria-label="Introducción  a R"
     transform="matrix(1.349938,0,0,1.4914711,-145.18471,-19.127465)"
     style="font-style:normal;font-variant:normal;font-weight:bold;font-stretch:normal;font-size:96px;line-height:1.25;font-family:Lato;-inkscape-font-specification:'Lato Bold';text-align:center;letter-spacing:0px;word-spacing:0px;text-anchor:middle"
     id="flowRoot22">
  <g
       aria-label="Introducción 
a R"
       transform="matrix(0.90188894,0,0,1.1204968,50.304239,17.277908)"
       style="font-style:normal;font-variant:normal;font-weight:bold;font-stretch:normal;font-size:40px;line-height:1;font-family:Lato;-inkscape-font-specification:'Lato Bold';letter-spacing:0px;word-spacing:0px"
       id="flowRoot29">
      <path
         d="m 73.155273,85.458433 q 2.71875,-37.640625 2.71875,-57.9375 l -0.04687,-6.046875 q 8.203125,0.09375 10.96875,0.09375 1.265625,0 10.078125,-0.09375 -0.84375,10.546875 -1.359375,19.96875 -0.65625,13.125 -0.9375,24.5625 -0.28125,11.390625 -0.28125,19.453125 l -9.609375,-0.09375 q -2.8125,0 -11.53125,0.09375 z"
         style="font-style:normal;font-variant:normal;font-weight:bold;font-stretch:normal;font-size:96px;line-height:1;font-family:'Eras Bold ITC';-inkscape-font-specification:'Eras Bold ITC Bold'"
         id="path39" />
      <path
         d="m 104.74902,85.458433 q 1.35938,-10.640625 2.0625,-23.484375 0.75,-12.890625 0.89063,-24.375 5.625,0.09375 9.70312,0.09375 4.73438,0 9.09375,-0.09375 l -0.46875,6.375 q 1.54688,-1.734375 2.67188,-2.71875 1.125,-1.03125 2.76562,-1.96875 1.6875,-0.984375 3.5625,-1.59375 1.875,-0.609375 4.07813,-0.9375 2.25,-0.375 4.6875,-0.375 3.375,0 6.5625,0.75 3.23437,0.703125 5.39062,2.0625 2.15625,1.3125 3.60938,3.328125 1.45312,1.96875 1.92187,4.265625 0.46875,2.296875 0.46875,4.734375 0,1.78125 -0.375,7.6875 l -0.79687,16.96875 q -0.23438,5.015625 -0.23438,9.28125 -4.73437,-0.09375 -8.85937,-0.09375 -5.57813,0 -10.17188,0.09375 0.42188,-4.265625 0.89063,-12.65625 0.46875,-8.4375 0.46875,-11.859375 0,-5.296875 -2.0625,-7.359375 -2.01563,-2.109375 -5.10938,-2.109375 -2.71875,0 -5.15625,1.78125 -2.39062,1.78125 -3.70312,5.203125 -1.3125,3.375 -1.875,11.15625 -0.51563,7.78125 -0.70313,15.84375 -4.6875,-0.09375 -9.14062,-0.09375 -4.6875,0 -10.17188,0.09375 z"
         style="font-style:normal;font-variant:normal;font-weight:bold;font-stretch:normal;font-size:96px;line-height:1;font-family:'Eras Bold ITC';-inkscape-font-specification:'Eras Bold ITC Bold'"
         id="path41" />
      <path
         d="m 205.34277,71.677183 q -0.84375,3.9375 -1.45312,7.6875 l -1.03125,5.71875 q -4.64063,1.03125 -7.26563,1.3125 -2.57812,0.28125 -5.01562,0.28125 -3.98438,0 -7.07813,-0.703125 -3.09375,-0.65625 -5.15625,-2.4375 -2.0625,-1.828125 -2.8125,-4.171875 -0.75,-2.34375 -0.75,-4.96875 0,-0.46875 0.0469,-1.640625 0.0469,-1.21875 0.32812,-5.34375 l 1.03125,-16.21875 h -7.3125 q 0.23438,-3.234375 0.42188,-8.53125 l 0.14062,-4.359375 h 7.78125 q 0.28125,-2.15625 0.70313,-9.421875 l 8.01562,-1.640625 q 2.20313,-0.421875 9.375,-2.15625 -0.32812,6.140625 -0.46875,13.21875 h 10.6875 q -0.375,9.75 -0.375,12.890625 h -10.78125 l -0.5625,11.71875 q -0.0937,2.625 -0.0937,3.375 0,2.25 0.46875,3.75 0.51563,1.5 1.73438,2.15625 1.26562,0.65625 2.76562,0.65625 1.125,0 2.34375,-0.140625 1.21875,-0.1875 4.3125,-1.03125 z"
         style="font-style:normal;font-variant:normal;font-weight:bold;font-stretch:normal;font-size:96px;line-height:1;font-family:'Eras Bold ITC';-inkscape-font-specification:'Eras Bold ITC Bold'"
         id="path43" />
      <path
         d="m 211.2959,85.458433 1.45312,-20.8125 0.46875,-11.953125 q 0.0469,-3.234375 0.0469,-6.609375 0,-3.421875 -0.0937,-8.484375 5.67187,0.09375 9,0.09375 3.89062,0 8.95312,-0.09375 l -0.1875,5.296875 q 1.82813,-2.0625 3,-3.046875 1.17188,-1.03125 2.67188,-1.828125 1.5,-0.84375 3.14062,-1.21875 1.64063,-0.421875 3.42188,-0.421875 1.6875,0 3.75,0.46875 0.0469,5.109375 0.23437,8.4375 l 0.32813,7.21875 q -2.57813,-0.75 -4.82813,-0.75 -2.8125,0 -4.875,0.84375 -2.01562,0.796875 -3.60937,2.484375 -1.54688,1.640625 -2.48438,4.125 -0.9375,2.484375 -1.3125,7.875 -0.375,5.390625 -0.375,12.328125 0,2.4375 0.1875,6.046875 -4.54687,-0.09375 -9.14062,-0.09375 -4.54688,0 -9.75,0.09375 z"
         style="font-style:normal;font-variant:normal;font-weight:bold;font-stretch:normal;font-size:96px;line-height:1;font-family:'Eras Bold ITC';-inkscape-font-specification:'Eras Bold ITC Bold'"
         id="path45" />
      <path
         d="m 280.4834,36.380308 q 5.8125,0 11.15625,1.78125 5.39062,1.78125 9.09375,5.15625 3.70312,3.328125 5.4375,7.828125 1.78125,4.453125 1.78125,9.609375 0,5.015625 -1.59375,9.5625 -1.54688,4.5 -5.29688,8.484375 -3.75,3.9375 -9.5625,5.90625 -5.76562,1.96875 -12.23437,1.96875 -5.95313,0 -11.4375,-1.734375 -5.48438,-1.734375 -9.1875,-5.0625 -3.65625,-3.328125 -5.53125,-7.96875 -1.82813,-4.640625 -1.82813,-9.75 0,-5.109375 1.78125,-9.75 1.82813,-4.640625 5.71875,-8.34375 3.9375,-3.703125 9.70313,-5.671875 5.76562,-2.015625 12,-2.015625 z m -0.32813,13.78125 q -3,0 -5.34375,1.546875 -2.34375,1.546875 -3.5625,4.546875 -1.17187,2.953125 -1.17187,6.46875 0,5.15625 2.57812,7.921875 2.57813,2.71875 6.46875,2.71875 2.95313,0 5.29688,-1.546875 2.34375,-1.59375 3.51562,-4.640625 1.21875,-3.09375 1.21875,-6.609375 0,-2.90625 -0.9375,-5.25 -0.9375,-2.34375 -3.09375,-3.75 -2.10937,-1.40625 -4.96875,-1.40625 z"
         style="font-style:normal;font-variant:normal;font-weight:bold;font-stretch:normal;font-size:96px;line-height:1;font-family:'Eras Bold ITC';-inkscape-font-specification:'Eras Bold ITC Bold'"
         id="path47" />
      <path
         d="m 367.62402,85.458433 q -5.01562,-0.09375 -8.34375,-0.09375 -3.75,0 -9.09375,0.09375 l 0.28125,-5.953125 q -1.82812,1.78125 -3.1875,2.90625 -1.35937,1.078125 -3.51562,2.109375 -2.10938,1.03125 -4.59375,1.59375 -2.4375,0.5625 -5.0625,0.5625 -4.5,0 -8.4375,-1.640625 -3.89063,-1.640625 -6.65625,-4.640625 -2.76563,-3.046875 -4.125,-7.171875 -1.35938,-4.171875 -1.35938,-8.625 0,-6.328125 2.48438,-12.375 2.48437,-6.046875 6.46875,-9.515625 4.03125,-3.46875 9.04687,-4.875 5.0625,-1.453125 10.92188,-1.453125 3.89062,0 9.09375,0.703125 0.375,-5.578125 0.51562,-15.609375 5.76563,0.09375 9.42188,0.09375 4.73437,0 9.5625,-0.09375 -1.35938,13.921875 -2.39063,33.984375 -1.03125,20.0625 -1.03125,30 z m -16.73437,-36.1875 q -2.48438,-0.5625 -4.6875,-0.5625 -4.54688,0 -7.73438,1.78125 -3.1875,1.734375 -4.92187,5.484375 -1.6875,3.703125 -1.6875,7.3125 0,2.71875 0.9375,4.921875 0.98437,2.15625 2.95312,3.421875 2.01563,1.265625 4.45313,1.265625 2.57812,0 4.6875,-1.453125 2.15625,-1.453125 3.46875,-4.265625 1.35937,-2.8125 1.82812,-6.65625 0.51563,-3.890625 0.70313,-11.25 z"
         style="font-style:normal;font-variant:normal;font-weight:bold;font-stretch:normal;font-size:96px;line-height:1;font-family:'Eras Bold ITC';-inkscape-font-specification:'Eras Bold ITC Bold'"
         id="path49" />
      <path
         d="m 430.6709,85.458433 q -5.34375,-0.09375 -8.90625,-0.09375 -4.40625,0 -8.85938,0.09375 l -0.0469,-6.421875 q -1.6875,2.109375 -2.85938,3.1875 -1.17187,1.03125 -2.57812,1.828125 -1.35938,0.796875 -3.09375,1.40625 -1.6875,0.5625 -3.9375,0.890625 -2.20313,0.328125 -4.5,0.328125 -3.70313,0 -7.03125,-0.890625 -3.28125,-0.84375 -5.8125,-2.90625 -2.48438,-2.0625 -3.42188,-4.6875 -0.89062,-2.625 -0.89062,-6.09375 0,-0.84375 0.14062,-2.625 l 0.75,-10.640625 q 0.32813,-5.859375 0.60938,-12.984375 0.1875,-4.359375 0.1875,-8.25 5.8125,0.09375 9.89062,0.09375 4.125,0 9.09375,-0.09375 l -1.45312,17.859375 q -0.32813,4.078125 -0.375,5.578125 0,1.453125 0,1.96875 0,4.921875 1.96875,6.65625 2.01562,1.734375 4.78125,1.734375 1.125,0 2.25,-0.328125 1.125,-0.328125 2.15625,-0.9375 0.89062,-0.5625 1.64062,-1.40625 0.79688,-0.890625 1.40625,-2.15625 0.75,-1.546875 1.125,-3.328125 0.51563,-2.484375 0.79688,-6.28125 0.1875,-2.765625 0.51562,-9.5625 l 0.375,-9.796875 q 6.04688,0.09375 9.9375,0.09375 4.35938,0 8.76563,-0.09375 -1.07813,11.90625 -1.6875,22.640625 -0.60938,10.734375 -0.9375,25.21875 z"
         style="font-style:normal;font-variant:normal;font-weight:bold;font-stretch:normal;font-size:96px;line-height:1;font-family:'Eras Bold ITC';-inkscape-font-specification:'Eras Bold ITC Bold'"
         id="path51" />
      <path
         d="m 481.15527,70.505308 q -0.23437,1.875 -1.125,6.890625 l -1.21875,7.5 q -7.35937,1.78125 -14.39062,1.78125 -5.10938,0 -8.95313,-1.03125 -4.54687,-1.21875 -8.15625,-4.3125 -3.70312,-3.1875 -5.39062,-7.546875 -2.01563,-5.109375 -2.01563,-11.4375 0,-5.8125 1.96875,-11.203125 1.96875,-5.390625 5.8125,-8.859375 3.84375,-3.515625 8.53125,-4.6875 4.6875,-1.21875 10.35938,-1.21875 3.32812,0 6.70312,0.375 3.375,0.328125 8.34375,1.5 l 0.0937,1.078125 q 0.14063,1.6875 0.1875,3.46875 0.0937,1.734375 0.32813,5.53125 l 0.28125,4.171875 q -6.70313,-2.34375 -11.85938,-2.34375 -3.70312,0 -6.51562,1.453125 -2.76563,1.40625 -4.125,4.125 -1.3125,2.671875 -1.3125,6.234375 0,3.609375 1.17187,6.046875 1.21875,2.4375 3.84375,3.65625 2.625,1.21875 5.76563,1.21875 1.59375,0 3.75,-0.328125 2.20312,-0.328125 3.79687,-0.703125 1.64063,-0.421875 4.125,-1.359375 z"
         style="font-style:normal;font-variant:normal;font-weight:bold;font-stretch:normal;font-size:96px;line-height:1;font-family:'Eras Bold ITC';-inkscape-font-specification:'Eras Bold ITC Bold'"
         id="path53" />
      <path
         d="m 529.71777,70.505308 q -0.23437,1.875 -1.125,6.890625 l -1.21875,7.5 q -7.35937,1.78125 -14.39062,1.78125 -5.10938,0 -8.95313,-1.03125 -4.54687,-1.21875 -8.15625,-4.3125 -3.70312,-3.1875 -5.39062,-7.546875 -2.01563,-5.109375 -2.01563,-11.4375 0,-5.8125 1.96875,-11.203125 1.96875,-5.390625 5.8125,-8.859375 3.84375,-3.515625 8.53125,-4.6875 4.6875,-1.21875 10.35938,-1.21875 3.32812,0 6.70312,0.375 3.375,0.328125 8.34375,1.5 l 0.0937,1.078125 q 0.14063,1.6875 0.1875,3.46875 0.0937,1.734375 0.32813,5.53125 l 0.28125,4.171875 q -6.70313,-2.34375 -11.85938,-2.34375 -3.70312,0 -6.51562,1.453125 -2.76563,1.40625 -4.125,4.125 -1.3125,2.671875 -1.3125,6.234375 0,3.609375 1.17187,6.046875 1.21875,2.4375 3.84375,3.65625 2.625,1.21875 5.76563,1.21875 1.59375,0 3.75,-0.328125 2.20312,-0.328125 3.79687,-0.703125 1.64063,-0.421875 4.125,-1.359375 z"
         style="font-style:normal;font-variant:normal;font-weight:bold;font-stretch:normal;font-size:96px;line-height:1;font-family:'Eras Bold ITC';-inkscape-font-specification:'Eras Bold ITC Bold'"
         id="path55" />
      <path
         d="m 541.01465,31.645933 q 0.28125,-5.578125 0.28125,-8.8125 0,-0.9375 -0.0469,-2.53125 5.67188,0.09375 9.51563,0.09375 5.29687,0 9.28125,-0.09375 -0.14063,1.453125 -0.1875,2.4375 l -0.28125,5.8125 q -0.0937,1.3125 -0.0937,3.09375 -4.64063,-0.09375 -8.90625,-0.09375 -4.40625,0 -9.5625,0.09375 z m -2.95313,53.8125 q 0.65625,-5.71875 0.98438,-9.421875 0.32812,-3.703125 0.60937,-9.46875 0.32813,-5.765625 0.5625,-12.75 0.23438,-6.984375 0.375,-16.21875 6.09375,0.09375 9.75,0.09375 3.32813,0 9.5625,-0.09375 -0.79687,8.859375 -1.17187,15.5625 -0.32813,6.703125 -0.42188,14.203125 -0.1875,13.3125 -0.1875,18.09375 -5.57812,-0.09375 -9.60937,-0.09375 -3.98438,0 -10.45313,0.09375 z"
         style="font-style:normal;font-variant:normal;font-weight:bold;font-stretch:normal;font-size:96px;line-height:1;font-family:'Eras Bold ITC';-inkscape-font-specification:'Eras Bold ITC Bold'"
         id="path57" />
      <path
         d="m 596.2334,36.380308 q 5.8125,0 11.15625,1.78125 5.39062,1.78125 9.09375,5.15625 3.70312,3.328125 5.4375,7.828125 1.78125,4.453125 1.78125,9.609375 0,5.015625 -1.59375,9.5625 -1.54688,4.5 -5.29688,8.484375 -3.75,3.9375 -9.5625,5.90625 -5.76562,1.96875 -12.23437,1.96875 -5.95313,0 -11.4375,-1.734375 -5.48438,-1.734375 -9.1875,-5.0625 -3.65625,-3.328125 -5.53125,-7.96875 -1.82813,-4.640625 -1.82813,-9.75 0,-5.109375 1.78125,-9.75 1.82813,-4.640625 5.71875,-8.34375 3.9375,-3.703125 9.70313,-5.671875 5.76562,-2.015625 12,-2.015625 z m -0.32813,13.78125 q -3,0 -5.34375,1.546875 -2.34375,1.546875 -3.5625,4.546875 -1.17187,2.953125 -1.17187,6.46875 0,5.15625 2.57812,7.921875 2.57813,2.71875 6.46875,2.71875 2.95313,0 5.29688,-1.546875 2.34375,-1.59375 3.51562,-4.640625 1.21875,-3.09375 1.21875,-6.609375 0,-2.90625 -0.9375,-5.25 -0.9375,-2.34375 -3.09375,-3.75 -2.10937,-1.40625 -4.96875,-1.40625 z m -7.21875,-19.265625 1.73438,-3.890625 q 0.65625,-1.359375 1.45312,-3.234375 l 1.45313,-3.28125 q 4.78125,0.09375 9.32812,0.09375 3.79688,0 9.46875,-0.09375 l -4.07812,4.546875 q -0.46875,0.515625 -2.10938,2.484375 -1.64062,1.96875 -2.85937,3.375 -4.5,-0.09375 -7.40625,-0.09375 -2.25,0 -6.98438,0.09375 z"
         style="font-style:normal;font-variant:normal;font-weight:bold;font-stretch:normal;font-size:96px;line-height:1;font-family:'Eras Bold ITC';-inkscape-font-specification:'Eras Bold ITC Bold'"
         id="path59" />
      <path
         d="m 630.12402,85.458433 q 1.35938,-10.640625 2.0625,-23.484375 0.75,-12.890625 0.89063,-24.375 5.625,0.09375 9.70312,0.09375 4.73438,0 9.09375,-0.09375 l -0.46875,6.375 q 1.54688,-1.734375 2.67188,-2.71875 1.125,-1.03125 2.76562,-1.96875 1.6875,-0.984375 3.5625,-1.59375 1.875,-0.609375 4.07813,-0.9375 2.25,-0.375 4.6875,-0.375 3.375,0 6.5625,0.75 3.23437,0.703125 5.39062,2.0625 2.15625,1.3125 3.60938,3.328125 1.45312,1.96875 1.92187,4.265625 0.46875,2.296875 0.46875,4.734375 0,1.78125 -0.375,7.6875 l -0.79687,16.96875 q -0.23438,5.015625 -0.23438,9.28125 -4.73437,-0.09375 -8.85937,-0.09375 -5.57813,0 -10.17188,0.09375 0.42188,-4.265625 0.89063,-12.65625 0.46875,-8.4375 0.46875,-11.859375 0,-5.296875 -2.0625,-7.359375 -2.01563,-2.109375 -5.10938,-2.109375 -2.71875,0 -5.15625,1.78125 -2.39062,1.78125 -3.70312,5.203125 -1.3125,3.375 -1.875,11.15625 -0.51563,7.78125 -0.70313,15.84375 -4.6875,-0.09375 -9.14062,-0.09375 -4.6875,0 -10.17188,0.09375 z"
         style="font-style:normal;font-variant:normal;font-weight:bold;font-stretch:normal;font-size:96px;line-height:1;font-family:'Eras Bold ITC';-inkscape-font-specification:'Eras Bold ITC Bold'"
         id="path61" />
      <path
         d="m 313.81152,147.23968 q 0.89063,-4.64062 1.125,-6.375 0.23438,-1.78125 0.75,-5.53125 13.5,-2.95312 23.20313,-2.95312 5.53125,0 10.125,1.26562 4.59375,1.21875 7.17187,3.98438 2.57813,2.76562 2.57813,7.92187 0,2.625 -0.70313,11.8125 -0.70312,9.1875 -1.07812,24.09375 -4.59375,-0.0937 -9.14063,-0.0937 -4.40625,0 -9.375,0.0937 0.65625,-5.15625 1.45313,-21.28125 -1.78125,0.84375 -2.8125,1.21875 -0.98438,0.375 -3.51563,1.125 -2.53125,0.75 -3.98437,1.26563 -1.40625,0.51562 -2.48438,1.3125 -1.03125,0.79687 -1.5,1.64062 -0.42187,0.84375 -0.42187,1.875 0,1.59375 1.26562,2.71875 1.26563,1.125 4.03125,1.125 0.98438,0 2.10938,-0.14062 1.125,-0.1875 3.09375,-0.84375 -1.35938,3.60937 -3.23438,10.54687 -4.03125,0.65625 -7.64062,0.65625 -5.8125,0 -9.70313,-1.59375 -3.84375,-1.64062 -5.95312,-5.25 -2.0625,-3.60937 -2.0625,-7.21875 0,-2.20312 0.75,-4.3125 0.79687,-2.10937 2.4375,-4.125 1.64062,-2.01562 3.84375,-3.42187 2.20312,-1.45313 6,-2.71875 3.84375,-1.26563 9.70312,-2.39063 2.4375,-0.46875 4.45313,-0.98437 2.0625,-0.5625 2.90625,-0.9375 0.89062,-0.42188 1.40625,-0.9375 0.5625,-0.5625 0.79687,-1.125 0.23438,-0.60938 0.23438,-1.26563 0,-1.78125 -1.5,-2.71875 -1.5,-0.98437 -4.40625,-0.98437 -8.0625,0 -19.92188,4.54687 z"
         style="font-style:normal;font-variant:normal;font-weight:bold;font-stretch:normal;font-size:96px;line-height:1;font-family:'Eras Bold ITC';-inkscape-font-specification:'Eras Bold ITC Bold'"
         id="path63" />
      <path
         d="m 391.99902,181.45843 q 0.89063,-8.25 1.40625,-14.85937 0.51563,-6.60938 0.89063,-15.32813 0.375,-8.71875 0.5625,-18.375 0.1875,-9.70312 0.1875,-15.42187 5.85937,0.14062 9.46875,0.14062 3.75,0 9.14062,-0.1875 5.39063,-0.23437 10.5,-0.23437 6,0 10.6875,0.46875 3.51563,0.32812 6.375,1.35937 2.90625,1.03125 4.875,2.53125 1.96875,1.45313 3.28125,3.28125 1.3125,1.82813 2.01563,4.3125 0.75,2.4375 0.75,5.25 0,3.14063 -0.79688,5.90625 -0.79687,2.71875 -2.53125,5.15625 -1.6875,2.39063 -4.3125,4.17188 -2.57812,1.73437 -7.26562,3.5625 l 2.4375,5.95312 q 1.03125,2.48438 2.20312,5.0625 l 6.28125,13.73438 q 0.42188,0.89062 1.5,3.51562 -7.73437,-0.0937 -10.40625,-0.0937 -3.375,0 -11.0625,0.0937 -0.75,-2.4375 -2.71875,-9.04687 -0.79687,-2.76563 -1.35937,-4.26563 -1.125,-3.32812 -3.32813,-9.32812 l -4.82812,-13.26563 q 2.53125,0.46875 4.96875,0.46875 3.42187,0 6.1875,-1.03125 2.8125,-1.03125 4.21875,-3.1875 1.45312,-2.15625 1.45312,-4.54687 0,-2.01563 -1.07812,-3.51563 -1.07813,-1.54687 -3.42188,-2.29687 -2.29687,-0.75 -7.125,-0.75 -1.64062,0 -3.42187,0.0937 -1.73438,0.0469 -4.07813,0.0937 -0.60937,9.60937 -1.07812,23.4375 -0.46875,13.82812 -0.60938,27.14062 -7.82812,-0.0937 -10.17187,-0.0937 -2.71875,0 -9.79688,0.0937 z"
         style="font-style:normal;font-variant:normal;font-weight:bold;font-stretch:normal;font-size:96px;line-height:1;font-family:'Eras Bold ITC';-inkscape-font-specification:'Eras Bold ITC Bold'"
         id="path65" />
   </g>
   </g>
</svg>
